<mxfile host="Electron" modified="2024-08-03T23:24:15.948Z" agent="Mozilla/5.0 (Windows NT 10.0; Win64; x64) AppleWebKit/537.36 (KHTML, like Gecko) draw.io/21.5.0 Chrome/112.0.5615.204 Electron/24.5.1 Safari/537.36" etag="nXXboZC9_JxQQN8Eomnz" version="21.5.0" type="device">
  <diagram name="Página-1" id="wx-o-10YYm63Rk46Rlhf">
    <mxGraphModel dx="1652" dy="948" grid="1" gridSize="10" guides="1" tooltips="1" connect="1" arrows="1" fold="1" page="1" pageScale="1" pageWidth="690" pageHeight="980" math="0" shadow="0">
      <root>
        <mxCell id="0" />
        <mxCell id="1" parent="0" />
        <mxCell id="ETqfE5K8ogx2RwTTf28K-8" value="" style="image;sketch=0;aspect=fixed;html=1;points=[];align=center;fontSize=12;image=img/lib/mscae/Web_App_Firewall.svg;" parent="1" vertex="1">
          <mxGeometry x="790" y="290" width="70" height="70" as="geometry" />
        </mxCell>
        <mxCell id="ETqfE5K8ogx2RwTTf28K-52" value="" style="group" parent="1" vertex="1" connectable="0">
          <mxGeometry x="330" y="170" width="180" height="350" as="geometry" />
        </mxCell>
        <mxCell id="ETqfE5K8ogx2RwTTf28K-24" value="" style="rounded=0;whiteSpace=wrap;html=1;strokeWidth=2;strokeColor=#000219;" parent="ETqfE5K8ogx2RwTTf28K-52" vertex="1">
          <mxGeometry y="31" width="180" height="319" as="geometry" />
        </mxCell>
        <mxCell id="ETqfE5K8ogx2RwTTf28K-25" value="&lt;font face=&quot;Gitlab Mono&quot; color=&quot;#ffffff&quot;&gt;&lt;b&gt;Clientes&lt;/b&gt;&lt;/font&gt;" style="text;html=1;align=center;verticalAlign=middle;whiteSpace=wrap;rounded=0;fillColor=#000219;strokeColor=#000219;strokeWidth=2;" parent="ETqfE5K8ogx2RwTTf28K-52" vertex="1">
          <mxGeometry width="180" height="30" as="geometry" />
        </mxCell>
        <mxCell id="ETqfE5K8ogx2RwTTf28K-51" value="" style="group" parent="ETqfE5K8ogx2RwTTf28K-52" vertex="1" connectable="0">
          <mxGeometry x="25.139999999999986" y="58" width="130.11" height="265" as="geometry" />
        </mxCell>
        <mxCell id="ETqfE5K8ogx2RwTTf28K-39" value="" style="group" parent="ETqfE5K8ogx2RwTTf28K-51" vertex="1" connectable="0">
          <mxGeometry width="130.11" height="127.5" as="geometry" />
        </mxCell>
        <mxCell id="ETqfE5K8ogx2RwTTf28K-31" value="" style="rounded=0;whiteSpace=wrap;html=1;strokeColor=#0A0540;strokeWidth=2;glass=0;" parent="ETqfE5K8ogx2RwTTf28K-39" vertex="1">
          <mxGeometry width="130" height="107.5" as="geometry" />
        </mxCell>
        <mxCell id="ETqfE5K8ogx2RwTTf28K-34" value="" style="group" parent="ETqfE5K8ogx2RwTTf28K-39" vertex="1" connectable="0">
          <mxGeometry x="24.860000000000014" y="13.75" width="80.26999999999998" height="80" as="geometry" />
        </mxCell>
        <mxCell id="ETqfE5K8ogx2RwTTf28K-29" value="" style="dashed=0;outlineConnect=0;html=1;align=center;labelPosition=center;verticalLabelPosition=bottom;verticalAlign=top;shape=mxgraph.webicons.android;gradientColor=#DFDEDE" parent="ETqfE5K8ogx2RwTTf28K-34" vertex="1">
          <mxGeometry width="46.12198895027624" height="46.22222222222222" as="geometry" />
        </mxCell>
        <mxCell id="ETqfE5K8ogx2RwTTf28K-30" value="" style="dashed=0;outlineConnect=0;html=1;align=center;labelPosition=center;verticalLabelPosition=bottom;verticalAlign=top;shape=mxgraph.webicons.ios;fillColor=#695D5D;gradientColor=#100E0E" parent="ETqfE5K8ogx2RwTTf28K-34" vertex="1">
          <mxGeometry x="35.92193370165745" y="35.55555555555554" width="44.348066298342545" height="44.44444444444445" as="geometry" />
        </mxCell>
        <mxCell id="ETqfE5K8ogx2RwTTf28K-38" value="" style="group" parent="ETqfE5K8ogx2RwTTf28K-39" vertex="1" connectable="0">
          <mxGeometry x="0.11000000000001364" y="107.5" width="130" height="20" as="geometry" />
        </mxCell>
        <mxCell id="ETqfE5K8ogx2RwTTf28K-33" value="&lt;p style=&quot;line-height: 100%;&quot;&gt;&lt;br&gt;&lt;/p&gt;" style="text;html=1;align=center;verticalAlign=middle;whiteSpace=wrap;rounded=0;fillColor=#0A0540;strokeColor=#0A0540;strokeWidth=2;" parent="ETqfE5K8ogx2RwTTf28K-38" vertex="1">
          <mxGeometry width="130" height="20" as="geometry" />
        </mxCell>
        <mxCell id="ETqfE5K8ogx2RwTTf28K-36" value="&lt;span style=&quot;color: rgb(255, 255, 255); font-family: &amp;quot;Gitlab Mono&amp;quot;;&quot;&gt;&lt;font style=&quot;font-size: 9px;&quot;&gt;Aplicativo&lt;/font&gt;&lt;/span&gt;" style="text;html=1;align=center;verticalAlign=middle;whiteSpace=wrap;rounded=0;" parent="ETqfE5K8ogx2RwTTf28K-38" vertex="1">
          <mxGeometry width="130" height="20" as="geometry" />
        </mxCell>
        <mxCell id="ETqfE5K8ogx2RwTTf28K-48" value="" style="group" parent="ETqfE5K8ogx2RwTTf28K-51" vertex="1" connectable="0">
          <mxGeometry x="0.11000000000001364" y="137.5" width="130" height="127.5" as="geometry" />
        </mxCell>
        <mxCell id="ETqfE5K8ogx2RwTTf28K-41" value="" style="rounded=0;whiteSpace=wrap;html=1;strokeColor=#0A0540;strokeWidth=2;glass=0;" parent="ETqfE5K8ogx2RwTTf28K-48" vertex="1">
          <mxGeometry width="130" height="107.5" as="geometry" />
        </mxCell>
        <mxCell id="ETqfE5K8ogx2RwTTf28K-45" value="" style="group" parent="ETqfE5K8ogx2RwTTf28K-48" vertex="1" connectable="0">
          <mxGeometry y="107.5" width="130" height="20" as="geometry" />
        </mxCell>
        <mxCell id="ETqfE5K8ogx2RwTTf28K-46" value="&lt;p style=&quot;line-height: 100%;&quot;&gt;&lt;br&gt;&lt;/p&gt;" style="text;html=1;align=center;verticalAlign=middle;whiteSpace=wrap;rounded=0;fillColor=#0A0540;strokeColor=#0A0540;strokeWidth=2;" parent="ETqfE5K8ogx2RwTTf28K-45" vertex="1">
          <mxGeometry width="130" height="20" as="geometry" />
        </mxCell>
        <mxCell id="ETqfE5K8ogx2RwTTf28K-47" value="&lt;span style=&quot;color: rgb(255, 255, 255); font-family: &amp;quot;Gitlab Mono&amp;quot;;&quot;&gt;&lt;font style=&quot;font-size: 9px;&quot;&gt;Website&lt;/font&gt;&lt;/span&gt;" style="text;html=1;align=center;verticalAlign=middle;whiteSpace=wrap;rounded=0;" parent="ETqfE5K8ogx2RwTTf28K-45" vertex="1">
          <mxGeometry width="130" height="20" as="geometry" />
        </mxCell>
        <mxCell id="ETqfE5K8ogx2RwTTf28K-28" value="" style="image;sketch=0;aspect=fixed;html=1;points=[];align=center;fontSize=12;image=img/lib/mscae/CustomDomain.svg;" parent="ETqfE5K8ogx2RwTTf28K-48" vertex="1">
          <mxGeometry x="32" y="26.029999999999973" width="66" height="55.44" as="geometry" />
        </mxCell>
        <mxCell id="ETqfE5K8ogx2RwTTf28K-53" value="" style="group" parent="1" vertex="1" connectable="0">
          <mxGeometry x="50" y="170" width="125" height="350" as="geometry" />
        </mxCell>
        <mxCell id="ETqfE5K8ogx2RwTTf28K-14" value="" style="rounded=0;whiteSpace=wrap;html=1;strokeWidth=2;strokeColor=#000219;" parent="ETqfE5K8ogx2RwTTf28K-53" vertex="1">
          <mxGeometry width="125" height="350" as="geometry" />
        </mxCell>
        <mxCell id="ETqfE5K8ogx2RwTTf28K-1" value="Usuário" style="shape=umlActor;verticalLabelPosition=bottom;verticalAlign=top;html=1;outlineConnect=0;" parent="ETqfE5K8ogx2RwTTf28K-53" vertex="1">
          <mxGeometry x="47.5" y="145" width="30" height="60" as="geometry" />
        </mxCell>
        <mxCell id="ETqfE5K8ogx2RwTTf28K-15" value="&lt;font face=&quot;Gitlab Mono&quot; color=&quot;#ffffff&quot;&gt;&lt;b&gt;Atores&lt;/b&gt;&lt;/font&gt;" style="text;html=1;align=center;verticalAlign=middle;whiteSpace=wrap;rounded=0;fillColor=#000219;" parent="ETqfE5K8ogx2RwTTf28K-53" vertex="1">
          <mxGeometry width="125" height="30" as="geometry" />
        </mxCell>
        <mxCell id="ETqfE5K8ogx2RwTTf28K-54" value="" style="group" parent="1" vertex="1" connectable="0">
          <mxGeometry x="190" y="170" width="125" height="350" as="geometry" />
        </mxCell>
        <mxCell id="ETqfE5K8ogx2RwTTf28K-16" value="" style="rounded=0;whiteSpace=wrap;html=1;strokeWidth=2;strokeColor=#000219;" parent="ETqfE5K8ogx2RwTTf28K-54" vertex="1">
          <mxGeometry width="125" height="350" as="geometry" />
        </mxCell>
        <mxCell id="ETqfE5K8ogx2RwTTf28K-19" value="&lt;font face=&quot;Gitlab Mono&quot; color=&quot;#ffffff&quot;&gt;&lt;b&gt;Meios&lt;/b&gt;&lt;/font&gt;" style="text;html=1;align=center;verticalAlign=middle;whiteSpace=wrap;rounded=0;fillColor=#000219;" parent="ETqfE5K8ogx2RwTTf28K-54" vertex="1">
          <mxGeometry width="125" height="30" as="geometry" />
        </mxCell>
        <mxCell id="ETqfE5K8ogx2RwTTf28K-22" value="" style="sketch=0;pointerEvents=1;shadow=0;dashed=0;html=1;strokeColor=none;fillColor=#505050;labelPosition=center;verticalLabelPosition=bottom;verticalAlign=top;outlineConnect=0;align=center;shape=mxgraph.office.devices.cell_phone_generic;" parent="ETqfE5K8ogx2RwTTf28K-54" vertex="1">
          <mxGeometry x="45.9" y="81.75" width="33.19" height="60" as="geometry" />
        </mxCell>
        <mxCell id="ETqfE5K8ogx2RwTTf28K-23" value="" style="image;points=[];aspect=fixed;html=1;align=center;shadow=0;dashed=0;image=img/lib/allied_telesis/computer_and_terminals/Personal_Computer.svg;" parent="ETqfE5K8ogx2RwTTf28K-54" vertex="1">
          <mxGeometry x="34.839999999999996" y="211.77" width="55.31" height="74.96" as="geometry" />
        </mxCell>
        <mxCell id="ETqfE5K8ogx2RwTTf28K-55" value="" style="rounded=0;orthogonalLoop=1;jettySize=auto;html=1;startArrow=classic;startFill=1;strokeWidth=1;entryX=0;entryY=0.5;entryDx=0;entryDy=0;fillColor=#d0cee2;strokeColor=#56517e;" parent="1" source="ETqfE5K8ogx2RwTTf28K-22" target="ETqfE5K8ogx2RwTTf28K-31" edge="1">
          <mxGeometry relative="1" as="geometry" />
        </mxCell>
        <mxCell id="ETqfE5K8ogx2RwTTf28K-56" style="rounded=1;orthogonalLoop=1;jettySize=auto;html=1;entryX=0;entryY=0.5;entryDx=0;entryDy=0;strokeWidth=1;startArrow=classic;startFill=1;curved=0;fillColor=#d0cee2;strokeColor=#56517e;" parent="1" source="ETqfE5K8ogx2RwTTf28K-23" target="ETqfE5K8ogx2RwTTf28K-41" edge="1">
          <mxGeometry relative="1" as="geometry" />
        </mxCell>
        <mxCell id="ETqfE5K8ogx2RwTTf28K-58" style="rounded=0;orthogonalLoop=1;jettySize=auto;html=1;entryX=-0.004;entryY=0.314;entryDx=0;entryDy=0;startArrow=classic;startFill=1;strokeWidth=1;entryPerimeter=0;fillColor=#d0cee2;strokeColor=#56517e;" parent="1" source="ETqfE5K8ogx2RwTTf28K-22" target="ETqfE5K8ogx2RwTTf28K-41" edge="1">
          <mxGeometry relative="1" as="geometry" />
        </mxCell>
        <mxCell id="ETqfE5K8ogx2RwTTf28K-60" style="rounded=1;orthogonalLoop=1;jettySize=auto;html=1;curved=0;startArrow=classic;startFill=1;strokeWidth=1;fillColor=#d0cee2;strokeColor=#56517e;" parent="1" source="ETqfE5K8ogx2RwTTf28K-1" target="ETqfE5K8ogx2RwTTf28K-22" edge="1">
          <mxGeometry relative="1" as="geometry">
            <mxPoint x="138" y="295" as="sourcePoint" />
            <mxPoint x="246" y="313" as="targetPoint" />
          </mxGeometry>
        </mxCell>
        <mxCell id="ETqfE5K8ogx2RwTTf28K-62" style="rounded=1;orthogonalLoop=1;jettySize=auto;html=1;entryX=0.043;entryY=0.222;entryDx=0;entryDy=0;entryPerimeter=0;fillColor=#d0cee2;strokeColor=#56517e;curved=0;startArrow=classic;startFill=1;strokeWidth=1;" parent="1" source="ETqfE5K8ogx2RwTTf28K-1" target="ETqfE5K8ogx2RwTTf28K-23" edge="1">
          <mxGeometry relative="1" as="geometry">
            <mxPoint x="130" y="290" as="sourcePoint" />
          </mxGeometry>
        </mxCell>
        <mxCell id="ETqfE5K8ogx2RwTTf28K-63" value="&lt;b style=&quot;&quot;&gt;&lt;font data-font-src=&quot;https://gitlab-org.gitlab.io/frontend/fonts/fonts/GitLabMono.ttf&quot; face=&quot;GitLab Mono&quot;&gt;INTERNET&lt;/font&gt;&lt;/b&gt;" style="rounded=0;whiteSpace=wrap;html=1;strokeWidth=4;fillColor=#A23573;fontColor=#ffffff;strokeColor=#6F0000;" parent="1" vertex="1">
          <mxGeometry x="580" y="140" width="90" height="390" as="geometry" />
        </mxCell>
        <mxCell id="ETqfE5K8ogx2RwTTf28K-64" value="" style="image;aspect=fixed;perimeter=ellipsePerimeter;html=1;align=center;shadow=0;dashed=0;spacingTop=3;image=img/lib/active_directory/internet_globe.svg;" parent="1" vertex="1">
          <mxGeometry x="600" y="110" width="50" height="50" as="geometry" />
        </mxCell>
        <mxCell id="ETqfE5K8ogx2RwTTf28K-67" value="" style="rounded=0;whiteSpace=wrap;html=1;strokeWidth=2;strokeColor=#000219;" parent="1" vertex="1">
          <mxGeometry x="760" y="170" width="350" height="350" as="geometry" />
        </mxCell>
        <mxCell id="ETqfE5K8ogx2RwTTf28K-69" value="&lt;font face=&quot;Gitlab Mono&quot; color=&quot;#ffffff&quot;&gt;&lt;b&gt;Serviços do Ladesa&lt;/b&gt;&lt;/font&gt;" style="text;html=1;align=center;verticalAlign=middle;whiteSpace=wrap;rounded=0;fillColor=#000219;" parent="1" vertex="1">
          <mxGeometry x="760" y="170" width="350" height="30" as="geometry" />
        </mxCell>
        <mxCell id="ETqfE5K8ogx2RwTTf28K-71" value="API" style="rounded=0;whiteSpace=wrap;html=1;fontFamily=Gitlab Mono;strokeWidth=2;" parent="1" vertex="1">
          <mxGeometry x="730" y="332.5" width="60" height="37.5" as="geometry" />
        </mxCell>
        <mxCell id="ETqfE5K8ogx2RwTTf28K-73" value="" style="endArrow=classic;startArrow=classic;html=1;rounded=0;strokeWidth=3;fillColor=#d80073;strokeColor=#A50040;startFill=1;entryX=-0.025;entryY=0.36;entryDx=0;entryDy=0;entryPerimeter=0;exitX=1.02;exitY=0.485;exitDx=0;exitDy=0;exitPerimeter=0;" parent="1" source="ETqfE5K8ogx2RwTTf28K-31" target="ETqfE5K8ogx2RwTTf28K-63" edge="1">
          <mxGeometry width="50" height="50" relative="1" as="geometry">
            <mxPoint x="520" y="280" as="sourcePoint" />
            <mxPoint x="560" y="280" as="targetPoint" />
          </mxGeometry>
        </mxCell>
        <mxCell id="ETqfE5K8ogx2RwTTf28K-74" style="rounded=0;orthogonalLoop=1;jettySize=auto;html=1;startArrow=classic;startFill=1;strokeWidth=3;entryX=-0.027;entryY=0.722;entryDx=0;entryDy=0;entryPerimeter=0;fillColor=#d80073;strokeColor=#A50040;exitX=1.016;exitY=0.529;exitDx=0;exitDy=0;exitPerimeter=0;" parent="1" source="ETqfE5K8ogx2RwTTf28K-41" target="ETqfE5K8ogx2RwTTf28K-63" edge="1">
          <mxGeometry relative="1" as="geometry">
            <mxPoint x="520" y="420" as="sourcePoint" />
          </mxGeometry>
        </mxCell>
        <mxCell id="ETqfE5K8ogx2RwTTf28K-78" value="" style="edgeStyle=orthogonalEdgeStyle;rounded=0;orthogonalLoop=1;jettySize=auto;html=1;fillColor=#d0cee2;strokeColor=#56517e;strokeWidth=1;startArrow=classic;startFill=1;" parent="1" source="ETqfE5K8ogx2RwTTf28K-75" target="ETqfE5K8ogx2RwTTf28K-71" edge="1">
          <mxGeometry relative="1" as="geometry" />
        </mxCell>
        <mxCell id="ETqfE5K8ogx2RwTTf28K-75" value="Sistemas Internos" style="image;html=1;image=img/lib/clip_art/computers/Server_Tower_128x128.png" parent="1" vertex="1">
          <mxGeometry x="882.5" y="278.75" width="105" height="145" as="geometry" />
        </mxCell>
        <mxCell id="ETqfE5K8ogx2RwTTf28K-79" style="edgeStyle=orthogonalEdgeStyle;rounded=0;orthogonalLoop=1;jettySize=auto;html=1;entryX=1;entryY=0.542;entryDx=0;entryDy=0;entryPerimeter=0;startArrow=classic;startFill=1;strokeWidth=3;fillColor=#d80073;strokeColor=#A50040;" parent="1" source="ETqfE5K8ogx2RwTTf28K-71" target="ETqfE5K8ogx2RwTTf28K-63" edge="1">
          <mxGeometry relative="1" as="geometry" />
        </mxCell>
      </root>
    </mxGraphModel>
  </diagram>
</mxfile>
